<svg width="100" height="100" viewBox="0 0 100 100" fill="none" xmlns="http://www.w3.org/2000/svg">
<path fill-rule="evenodd" clip-rule="evenodd" d="M23 16C25.419 16 27.4367 14.2822 27.9 12H37V28H39V10H38H37H27.9C27.4367 7.71776 25.419 6 23 6C20.2386 6 18 8.23858 18 11C18 13.7614 20.2386 16 23 16ZM66 31H34V63H66V31ZM45 10H47V28H45V10ZM55 10H53V28H55V10ZM57 11C57 13.419 58.7178 15.4367 61 15.9V28H63V15.9C65.2822 15.4367 67 13.419 67 11C67 8.23858 64.7614 6 62 6C59.2386 6 57 8.23858 57 11ZM39 77V66H37V77H39ZM45 66H47V84H46H45V66ZM46 84C48.7614 84 51 86.2386 51 89C51 91.7614 48.7614 94 46 94C43.2386 94 41 91.7614 41 89C41 86.2386 43.2386 84 46 84ZM55 66H53V77H55V66ZM63 66V93H61V66H63ZM24 58V60V72.1C21.7178 72.5633 20 74.581 20 77C20 79.7614 22.2386 82 25 82C27.7614 82 30 79.7614 30 77C30 74.581 28.2822 72.5633 26 72.1V60H31V58H26H24ZM19 52V50H31V52H19ZM11 42H10V59.1C7.71776 59.5633 6 61.581 6 64C6 66.7614 8.23858 69 11 69C13.7614 69 16 66.7614 16 64C16 61.581 14.2822 59.5633 12 59.1V44H31V42H12H11ZM7 23H19H21V25V34H31V36H21H19V34V25H7V23ZM79 58H69V60H79V78.1C76.7178 78.5633 75 80.581 75 83C75 85.7614 77.2386 88 80 88C82.7614 88 85 85.7614 85 83C85 80.581 83.2822 78.5633 81 78.1V60V58H79ZM89 46C86.581 46 84.5633 47.7178 84.1 50H69V52H84.1C84.5633 54.2822 86.581 56 89 56C91.7614 56 94 53.7614 94 51C94 48.2386 91.7614 46 89 46ZM90 27.9C92.2822 27.4367 94 25.419 94 23C94 20.2386 91.7614 18 89 18C86.2386 18 84 20.2386 84 23C84 25.419 85.7178 27.4367 88 27.9V34H69V36H88H90V34V27.9ZM80 44V42H69V44H80Z" fill="url(#paint0_linear_2721_436)"/>
<circle cx="50" cy="47" r="12" stroke="white" stroke-width="2"/>
<path d="M44 46.5556L49 51L57 43" stroke="white" stroke-width="2" stroke-linecap="round" stroke-linejoin="round"/>
<defs>
<linearGradient id="paint0_linear_2721_436" x1="49.5" y1="6" x2="49.5" y2="93" gradientUnits="userSpaceOnUse">
<stop stop-color="#4F53F6"/>
<stop offset="1" stop-color="#24D7D7"/>
</linearGradient>
</defs>
</svg>
