<svg width="100" height="100" viewBox="0 0 100 100" fill="none" xmlns="http://www.w3.org/2000/svg">
<path fill-rule="evenodd" clip-rule="evenodd" d="M15 7C9.47715 7 5 11.4772 5 17V76.9705V77H5.00004C5.01595 82.5051 9.48275 87 15 87H45H82H94H95V86V15V14H94H24.5422C23.2679 9.94289 19.4776 7 15 7ZM82 85H45H15C10.586 85 7 81.393 7 76.9705C7 72.5804 10.5596 69 14.9412 69C19.327 69 22.8824 72.5554 22.8824 76.9412V78.5H24.8824V77H25V17C25 16.6625 24.9833 16.3289 24.9506 16H93V85H82ZM23 71.1191V17C23 12.5817 19.4183 9 15 9C10.5817 9 7 12.5817 7 17V70.9786C8.81371 68.5657 11.6945 67 14.9412 67C18.2572 67 21.194 68.6235 23 71.1191ZM65 31C65 31.7403 64.5978 32.3866 64 32.7324V39H62V32.7324C61.4022 32.3866 61 31.7403 61 31C61 29.8954 61.8954 29 63 29C64.1046 29 65 29.8954 65 31ZM46.7324 33C46.3866 33.5978 45.7403 34 45 34C43.8954 34 43 33.1046 43 32C43 30.8954 43.8954 30 45 30C45.7403 30 46.3866 30.4022 46.7324 31H50H52V33V39H50V33H46.7324ZM65 41H49V57H65V41ZM56 31H58V39H56V31ZM50 59H52V65H50V59ZM58 59H56V66.2676C55.4022 66.6134 55 67.2597 55 68C55 69.1046 55.8954 70 57 70C58.1046 70 59 69.1046 59 68C59 67.2597 58.5978 66.6134 58 66.2676V59ZM64 59V72H62V59H64ZM44 56H47V54H44V56ZM38 48H40H47V50H40V55.2676C40.5978 55.6134 41 56.2597 41 57C41 58.1046 40.1046 59 39 59C37.8954 59 37 58.1046 37 57C37 56.2597 37.4022 55.6134 38 55.2676V50V48ZM44 42V40V38H42H37V40H42V42V44H44H47V42H44ZM71 54H67V56H71V63.2676C70.4022 63.6134 70 64.2597 70 65C70 66.1046 70.8954 67 72 67C73.1046 67 74 66.1046 74 65C74 64.2597 73.5978 63.6134 73 63.2676V56V54H71ZM75 39.7324C74.4022 39.3866 74 38.7403 74 38C74 36.8954 74.8954 36 76 36C77.1046 36 78 36.8954 78 38C78 38.7403 77.5978 39.3866 77 39.7324V42V44H75H67V42H75V39.7324ZM72 48V50H67V48H72Z" fill="url(#paint0_linear_2722_583)"/>
<defs>
<linearGradient id="paint0_linear_2722_583" x1="57.2557" y1="29" x2="57.2557" y2="71.5114" gradientUnits="userSpaceOnUse">
<stop stop-color="#4F53F6"/>
<stop offset="1" stop-color="#24D7D7"/>
</linearGradient>
</defs>
</svg>
