<svg width="100" height="100" viewBox="0 0 100 100" fill="none" xmlns="http://www.w3.org/2000/svg">
<path fill-rule="evenodd" clip-rule="evenodd" d="M23 16C25.419 16 27.4367 14.2822 27.9 12H37V28H39V10H38H37H27.9C27.4367 7.71776 25.419 6 23 6C20.2386 6 18 8.23858 18 11C18 13.7614 20.2386 16 23 16ZM66 31H34V63H66V31ZM45 10H47V28H45V10ZM55 10H53V28H55V10ZM57 11C57 13.419 58.7178 15.4367 61 15.9V28H63V15.9C65.2822 15.4367 67 13.419 67 11C67 8.23858 64.7614 6 62 6C59.2386 6 57 8.23858 57 11ZM39 77V66H37V77H39ZM45 66H47V84H46H45V66ZM46 84C48.7614 84 51 86.2386 51 89C51 91.7614 48.7614 94 46 94C43.2386 94 41 91.7614 41 89C41 86.2386 43.2386 84 46 84ZM55 66H53V77H55V66ZM63 66V93H61V66H63ZM24 58V60V72.1C21.7178 72.5633 20 74.581 20 77C20 79.7614 22.2386 82 25 82C27.7614 82 30 79.7614 30 77C30 74.581 28.2822 72.5633 26 72.1V60H31V58H26H24ZM19 52V50H31V52H19ZM11 42H10V59.1C7.71776 59.5633 6 61.581 6 64C6 66.7614 8.23858 69 11 69C13.7614 69 16 66.7614 16 64C16 61.581 14.2822 59.5633 12 59.1V44H31V42H12H11ZM7 23H19H21V25V34H31V36H21H19V34V25H7V23ZM79 58H69V60H79V78.1C76.7178 78.5633 75 80.581 75 83C75 85.7614 77.2386 88 80 88C82.7614 88 85 85.7614 85 83C85 80.581 83.2822 78.5633 81 78.1V60V58H79ZM89 46C86.581 46 84.5633 47.7178 84.1 50H69V52H84.1C84.5633 54.2822 86.581 56 89 56C91.7614 56 94 53.7614 94 51C94 48.2386 91.7614 46 89 46ZM90 27.9C92.2822 27.4367 94 25.419 94 23C94 20.2386 91.7614 18 89 18C86.2386 18 84 20.2386 84 23C84 25.419 85.7178 27.4367 88 27.9V34H69V36H88H90V34V27.9ZM80 44V42H69V44H80Z" fill="url(#paint0_linear_2720_420)"/>
<mask id="path-2-inside-1_2720_420" fill="white">
<path fill-rule="evenodd" clip-rule="evenodd" d="M47.1111 37.3076V36C47.1111 34.8954 48.0065 34 49.1111 34H50.8889C51.9934 34 52.8889 34.8954 52.8889 36V37.3077C53.5496 37.5043 54.1821 37.7667 54.7786 38.0872L55.711 37.1548C56.4921 36.3738 57.7584 36.3738 58.5394 37.1548L59.7965 38.4119C60.5776 39.193 60.5776 40.4593 59.7965 41.2403L58.8786 42.1583C59.2147 42.7733 59.4887 43.4271 59.6923 44.1112H61C62.1046 44.1112 63 45.0066 63 46.1112V47.889C63 48.9935 62.1046 49.889 61 49.889H59.6923C59.4922 50.5614 59.224 51.2045 58.8957 51.8103L59.8208 52.7354C60.6019 53.5165 60.6019 54.7828 59.8208 55.5638L58.5638 56.8209C57.7827 57.602 56.5164 57.602 55.7353 56.8209L54.8102 55.8958C54.2044 56.2241 53.5613 56.4923 52.8889 56.6924V58C52.8889 59.1046 51.9934 60 50.8889 60H49.1111C48.0065 60 47.1111 59.1046 47.1111 58V56.6925C46.4386 56.4923 45.7954 56.2241 45.1896 55.8958L44.2645 56.8209C43.4835 57.6019 42.2172 57.6019 41.4361 56.8209L40.179 55.5638C39.398 54.7827 39.398 53.5164 40.179 52.7354L41.1041 51.8103C40.7758 51.2045 40.5077 50.5614 40.3075 49.889H39C37.8954 49.889 37 48.9935 37 47.889V46.1112C37 45.0066 37.8954 44.1112 39 44.1112H40.3075C40.5076 43.4387 40.7759 42.7956 41.1042 42.1897L40.1789 41.2645C39.3979 40.4834 39.3979 39.2171 40.1789 38.4361L41.436 37.179C42.217 36.3979 43.4834 36.3979 44.2644 37.179L45.1897 38.1042C45.7955 37.776 46.4386 37.5078 47.1111 37.3076ZM53.2501 47.0001C53.2501 48.795 51.795 50.2501 50.0001 50.2501C48.2051 50.2501 46.7501 48.795 46.7501 47.0001C46.7501 45.2051 48.2051 43.7501 50.0001 43.7501C51.795 43.7501 53.2501 45.2051 53.2501 47.0001Z"/>
</mask>
<path d="M47.1111 37.3076L47.6816 39.2245L49.1111 38.7991V37.3076H47.1111ZM52.8889 37.3077H50.8889V38.7991L52.3184 39.2246L52.8889 37.3077ZM54.7786 38.0872L53.832 39.849L55.1416 40.5527L56.1929 39.5014L54.7786 38.0872ZM55.711 37.1548L54.2968 35.7406V35.7406L55.711 37.1548ZM58.5394 37.1548L57.1252 38.569L57.1252 38.569L58.5394 37.1548ZM59.7965 38.4119L58.3823 39.8261V39.8261L59.7965 38.4119ZM59.7965 41.2403L58.3823 39.8261L58.3823 39.8261L59.7965 41.2403ZM58.8786 42.1583L57.4644 40.7441L56.4053 41.8031L57.1236 43.1174L58.8786 42.1583ZM59.6923 44.1112L57.7754 44.6817L58.2009 46.1112H59.6923V44.1112ZM59.6923 49.889V47.889H58.2009L57.7754 49.3185L59.6923 49.889ZM58.8957 51.8103L57.1373 50.8575L56.4264 52.1694L57.4815 53.2245L58.8957 51.8103ZM54.8102 55.8958L56.2245 54.4816L55.1693 53.4265L53.8574 54.1374L54.8102 55.8958ZM52.8889 56.6924L52.3183 54.7755L50.8889 55.201V56.6924H52.8889ZM47.1111 56.6925H49.1111V55.201L47.6816 54.7756L47.1111 56.6925ZM45.1896 55.8958L46.1425 54.1374L44.8305 53.4265L43.7754 54.4816L45.1896 55.8958ZM44.2645 56.8209L45.6788 58.2351H45.6788L44.2645 56.8209ZM41.4361 56.8209L40.0219 58.2351H40.0219L41.4361 56.8209ZM40.179 55.5638L38.7648 56.978H38.7648L40.179 55.5638ZM40.179 52.7354L41.5933 54.1496L41.5933 54.1496L40.179 52.7354ZM41.1041 51.8103L42.5183 53.2245L43.5734 52.1694L42.8625 50.8574L41.1041 51.8103ZM40.3075 49.889L42.2244 49.3185L41.799 47.889H40.3075V49.889ZM40.3075 44.1112V46.1112H41.799L42.2244 44.6817L40.3075 44.1112ZM41.1042 42.1897L42.8626 43.1426L43.5735 41.8306L42.5184 40.7755L41.1042 42.1897ZM40.1789 41.2645L38.7647 42.6787H38.7647L40.1789 41.2645ZM41.436 37.179L42.8502 38.5932L41.436 37.179ZM44.2644 37.179L45.6786 35.7648V35.7648L44.2644 37.179ZM45.1897 38.1042L43.7755 39.5185L44.8306 40.5736L46.1425 39.8627L45.1897 38.1042ZM49.1111 37.3076V36H45.1111V37.3076H49.1111ZM49.1111 36L49.1111 36V32C46.9019 32 45.1111 33.7909 45.1111 36H49.1111ZM49.1111 36H50.8889V32H49.1111V36ZM50.8889 36V36H54.8889C54.8889 33.7909 53.098 32 50.8889 32V36ZM50.8889 36V37.3077H54.8889V36H50.8889ZM55.7252 36.3254C55.0103 35.9413 54.252 35.6266 53.4594 35.3908L52.3184 39.2246C52.8473 39.382 53.3538 39.5921 53.832 39.849L55.7252 36.3254ZM56.1929 39.5014L57.1252 38.5691L54.2968 35.7406L53.3644 36.673L56.1929 39.5014ZM57.1252 38.5691L57.1252 38.569L59.9537 35.7406C58.3916 34.1785 55.8589 34.1785 54.2968 35.7406L57.1252 38.5691ZM57.1252 38.569L58.3823 39.8261L61.2107 36.9977L59.9537 35.7406L57.1252 38.569ZM58.3823 39.8261V39.8261L61.2107 42.6546C62.7728 41.0925 62.7728 38.5598 61.2107 36.9977L58.3823 39.8261ZM58.3823 39.8261L57.4644 40.7441L60.2928 43.5725L61.2107 42.6546L58.3823 39.8261ZM61.6093 43.5407C61.365 42.7201 61.0364 41.9362 60.6336 41.1992L57.1236 43.1174C57.393 43.6104 57.6125 44.1341 57.7754 44.6817L61.6093 43.5407ZM59.6923 46.1112H61V42.1112H59.6923V46.1112ZM61 46.1112H61H65C65 43.9021 63.2092 42.1112 61 42.1112V46.1112ZM61 46.1112V47.889H65V46.1112H61ZM61 47.889V47.889V51.889C63.2092 51.889 65 50.0981 65 47.889H61ZM61 47.889H59.6923V51.889H61V47.889ZM60.6542 52.7631C61.0475 52.0372 61.3692 51.2661 61.6092 50.4595L57.7754 49.3185C57.6152 49.8567 57.4005 50.3718 57.1373 50.8575L60.6542 52.7631ZM57.4815 53.2245L58.4066 54.1496L61.2351 51.3212L60.31 50.3961L57.4815 53.2245ZM58.4066 54.1496V54.1496L61.2351 56.9781C62.7972 55.416 62.7972 52.8833 61.2351 51.3212L58.4066 54.1496ZM58.4066 54.1496L57.1496 55.4067L59.978 58.2351L61.2351 56.9781L58.4066 54.1496ZM57.1496 55.4067V55.4067L54.3211 58.2351C55.8832 59.7972 58.4159 59.7972 59.978 58.2351L57.1496 55.4067ZM57.1496 55.4067L56.2245 54.4816L53.396 57.31L54.3211 58.2351L57.1496 55.4067ZM53.4594 58.6093C54.266 58.3693 55.0371 58.0476 55.7631 57.6542L53.8574 54.1374C53.3717 54.4006 52.8566 54.6153 52.3183 54.7755L53.4594 58.6093ZM54.8889 58V56.6924H50.8889V58H54.8889ZM50.8889 62C53.098 62 54.8889 60.2092 54.8889 58H50.8889V58V62ZM49.1111 62H50.8889V58H49.1111V62ZM45.1111 58C45.1111 60.2092 46.9019 62 49.1111 62V58H49.1111H45.1111ZM45.1111 56.6925V58H49.1111V56.6925H45.1111ZM44.2367 57.6542C44.9627 58.0477 45.7339 58.3693 46.5406 58.6094L47.6816 54.7756C47.1433 54.6154 46.6281 54.4006 46.1425 54.1374L44.2367 57.6542ZM43.7754 54.4816L42.8503 55.4067L45.6788 58.2351L46.6038 57.31L43.7754 54.4816ZM42.8503 55.4067H42.8503L40.0219 58.2351C41.584 59.7972 44.1167 59.7972 45.6788 58.2351L42.8503 55.4067ZM42.8503 55.4067L41.5933 54.1496L38.7648 56.978L40.0219 58.2351L42.8503 55.4067ZM41.5933 54.1496L41.5933 54.1496L38.7648 51.3212C37.2027 52.8833 37.2027 55.4159 38.7648 56.978L41.5933 54.1496ZM41.5933 54.1496L42.5183 53.2245L39.6899 50.3961L38.7648 51.3212L41.5933 54.1496ZM38.3906 50.4595C38.6307 51.2661 38.9523 52.0372 39.3457 52.7631L42.8625 50.8574C42.5994 50.3718 42.3846 49.8567 42.2244 49.3185L38.3906 50.4595ZM40.3075 47.889H39V51.889H40.3075V47.889ZM39 47.889L39 47.889H35C35 50.0981 36.7909 51.889 39 51.889V47.889ZM39 47.889V46.1112H35V47.889H39ZM39 46.1112H39V42.1112C36.7909 42.1112 35 43.9021 35 46.1112H39ZM39 46.1112H40.3075V42.1112H39V46.1112ZM39.3457 41.2369C38.9523 41.9629 38.6307 42.734 38.3906 43.5407L42.2244 44.6817C42.3846 44.1434 42.5994 43.6283 42.8626 43.1426L39.3457 41.2369ZM42.5184 40.7755L41.5931 39.8503L38.7647 42.6787L39.6899 43.6039L42.5184 40.7755ZM41.5931 39.8503L41.5931 39.8503L38.7647 37.0219C37.2026 38.5839 37.2026 41.1166 38.7647 42.6787L41.5931 39.8503ZM41.5931 39.8503L42.8502 38.5932L40.0218 35.7648L38.7647 37.0219L41.5931 39.8503ZM42.8502 38.5932V38.5932L45.6786 35.7648C44.1165 34.2027 41.5839 34.2027 40.0218 35.7648L42.8502 38.5932ZM42.8502 38.5932L43.7755 39.5185L46.6039 36.69L45.6786 35.7648L42.8502 38.5932ZM46.5406 35.3907C45.734 35.6308 44.9628 35.9524 44.2368 36.3458L46.1425 39.8627C46.6282 39.5995 47.1433 39.3847 47.6816 39.2245L46.5406 35.3907ZM50.0001 52.2501C52.8995 52.2501 55.2501 49.8995 55.2501 47.0001H51.2501C51.2501 47.6904 50.6904 48.2501 50.0001 48.2501V52.2501ZM44.7501 47.0001C44.7501 49.8995 47.1006 52.2501 50.0001 52.2501V48.2501C49.3097 48.2501 48.7501 47.6904 48.7501 47.0001H44.7501ZM50.0001 41.7501C47.1006 41.7501 44.7501 44.1006 44.7501 47.0001H48.7501C48.7501 46.3097 49.3097 45.7501 50.0001 45.7501V41.7501ZM55.2501 47.0001C55.2501 44.1006 52.8995 41.7501 50.0001 41.7501V45.7501C50.6904 45.7501 51.2501 46.3097 51.2501 47.0001H55.2501Z" fill="white" mask="url(#path-2-inside-1_2720_420)"/>
<defs>
<linearGradient id="paint0_linear_2720_420" x1="49.5" y1="6" x2="49.5" y2="93" gradientUnits="userSpaceOnUse">
<stop stop-color="#4F53F6"/>
<stop offset="1" stop-color="#24D7D7"/>
</linearGradient>
</defs>
</svg>
